<svg xmlns="http://www.w3.org/2000/svg" width="40" height="40" viewBox="0 0 40 40">
  <g id="whatsapp-branco" transform="translate(-402 -93)">
    <g id="OBJECTS" transform="translate(269 -57)">
      <g id="Group_290" data-name="Group 290" transform="translate(143.6 150.5)">
        <g id="Group_291" data-name="Group 291">
          <path id="Path_162" data-name="Path 162" d="M176.6,166.577a16.211,16.211,0,0,1-24.024,14.069L143.6,183.5l2.92-8.627a15.877,15.877,0,0,1-2.323-8.3,16.2,16.2,0,0,1,32.4,0Zm-16.21-13.505a13.5,13.5,0,0,0-11.033,21.452l-1.709,5.011,5.226-1.659a13.556,13.556,0,1,0,7.516-24.8Zm8.179,17.222c-.1-.166-.365-.265-.763-.465s-2.356-1.145-2.721-1.278-.63-.2-.9.2-1.029,1.278-1.261,1.543-.465.3-.863.1a11.009,11.009,0,0,1-3.2-1.958,12.261,12.261,0,0,1-2.207-2.721.57.57,0,0,1,.166-.8c.183-.183.4-.465.6-.7a2.713,2.713,0,0,0,.4-.664.732.732,0,0,0-.033-.7c-.1-.2-.9-2.14-1.228-2.92s-.664-.763-.9-.763a5.987,5.987,0,0,0-.664.066,2.24,2.24,0,0,0-1.161.5,4.4,4.4,0,0,0-1.394,3.285,7.65,7.65,0,0,0,1.626,4.081c.2.265,2.754,4.38,6.786,5.956s4.032,1.045,4.762.979a4,4,0,0,0,2.688-1.875,3.115,3.115,0,0,0,.265-1.875Zm0,0" transform="translate(-150.2 -147)" fill="#fff"/>
          <rect id="Rectangle_55" data-name="Rectangle 55" width="40" height="40" transform="translate(-10.6 -0.5)" fill="none"/>
        </g>
      </g>
    </g>
  </g>
</svg>
